<?xml version="1.0" encoding="UTF-8" standalone="no"?>
<!-- Generator: Adobe Illustrator 11.0, SVG Export Plug-In  -->

<svg
   xmlns:dc="http://purl.org/dc/elements/1.1/"
   xmlns:cc="http://creativecommons.org/ns#"
   xmlns:rdf="http://www.w3.org/1999/02/22-rdf-syntax-ns#"
   xmlns:svg="http://www.w3.org/2000/svg"
   xmlns="http://www.w3.org/2000/svg"
   xmlns:sodipodi="http://sodipodi.sourceforge.net/DTD/sodipodi-0.dtd"
   xmlns:inkscape="http://www.inkscape.org/namespaces/inkscape"
   width="512"
   height="455"
   viewBox="-0.448 -0.888 512 455"
   xml:space="preserve"
   id="svg2"
   version="1.1"
   inkscape:version="0.48.0 r9654"
   sodipodi:docname="ryanlerch_Arrowup_Arrowdown_directional_sign.svg"><metadata
   id="metadata18"><rdf:RDF><cc:Work
       rdf:about=""><dc:format>image/svg+xml</dc:format><dc:type
         rdf:resource="http://purl.org/dc/dcmitype/StillImage" /><dc:title></dc:title></cc:Work></rdf:RDF></metadata><sodipodi:namedview
   pagecolor="#ffffff"
   bordercolor="#666666"
   borderopacity="1"
   objecttolerance="10"
   gridtolerance="10"
   guidetolerance="10"
   inkscape:pageopacity="0"
   inkscape:pageshadow="2"
   inkscape:window-width="1920"
   inkscape:window-height="1125"
   id="namedview16"
   showgrid="false"
   inkscape:zoom="0.14230769"
   inkscape:cx="257.24221"
   inkscape:cy="227.5"
   inkscape:window-x="0"
   inkscape:window-y="25"
   inkscape:window-maximized="1"
   inkscape:current-layer="g6" />
	<defs
   id="defs4">
	</defs>
	<g
   id="g6">
		<path
   fill="#ED171F"
   d="M219.672,20.592L5.544,391.464C1.944,397.728,0,404.856,0,412.128c0,22.752,18.504,41.256,41.256,41.256    h428.256c22.824-0.072,41.256-18.504,41.256-41.256c0-7.2-1.872-14.328-5.472-20.592l-214.2-370.944    C283.752,7.848,270.072,0,255.312,0c-14.616,0-28.224,7.848-35.568,20.592H219.672z"
   id="path8" />
		<polygon
   fill="#FEB82F"
   points="458.496,405.792 255.312,53.928 52.2,405.792 "
   id="polygon10" />
		<polygon
   points="206.568,336.096 206.568,221.904 174.816,221.904 174.816,336.096 134.136,336.096 191.304,393.192 248.328,336.096 "
   id="polygon12"
   transform="translate(63.974053,-34.160902)" />
		
	</g>
</svg>