<?xml version="1.0" encoding="UTF-8" standalone="no"?>
<!-- Created with Inkscape (http://www.inkscape.org/) -->

<svg
   xmlns:dc="http://purl.org/dc/elements/1.1/"
   xmlns:cc="http://creativecommons.org/ns#"
   xmlns:rdf="http://www.w3.org/1999/02/22-rdf-syntax-ns#"
   xmlns:svg="http://www.w3.org/2000/svg"
   xmlns="http://www.w3.org/2000/svg"
   xmlns:sodipodi="http://sodipodi.sourceforge.net/DTD/sodipodi-0.dtd"
   xmlns:inkscape="http://www.inkscape.org/namespaces/inkscape"
   width="1020.8884"
   height="690.7486"
   id="svg2"
   sodipodi:version="0.32"
   inkscape:version="0.48.0 r9654"
   version="1.0"
   sodipodi:docname="klsgfx_Helicopter.svg"
   inkscape:output_extension="org.inkscape.output.svg.inkscape">
  <defs
     id="defs4" />
  <sodipodi:namedview
     id="base"
     pagecolor="#ffffff"
     bordercolor="#666666"
     borderopacity="1.0"
     inkscape:pageopacity="0.0"
     inkscape:pageshadow="2"
     inkscape:zoom="1.1190757"
     inkscape:cx="512.2314"
     inkscape:cy="345.3743"
     inkscape:document-units="px"
     inkscape:current-layer="layer1"
     width="1052.3622px"
     height="744.09448px"
     inkscape:window-width="1280"
     inkscape:window-height="977"
     inkscape:window-x="0"
     inkscape:window-y="25"
     showgrid="false"
     inkscape:window-maximized="0" />
  <metadata
     id="metadata7">
    <rdf:RDF>
      <cc:Work
         rdf:about="">
        <dc:format>image/svg+xml</dc:format>
        <dc:type
           rdf:resource="http://purl.org/dc/dcmitype/StillImage" />
        <dc:title></dc:title>
        <dc:date>20070107</dc:date>
        <dc:creator>
          <cc:Agent>
            <dc:title>Klaus Kellner</dc:title>
          </cc:Agent>
        </dc:creator>
        <dc:rights>
          <cc:Agent>
            <dc:title>Klaus Kellner</dc:title>
          </cc:Agent>
        </dc:rights>
        <dc:publisher>
          <cc:Agent>
            <dc:title>Klaus Kellner</dc:title>
          </cc:Agent>
        </dc:publisher>
        <dc:subject>
          <rdf:Bag>
            <rdf:li>Helicopter</rdf:li>
            <rdf:li>Clipart</rdf:li>
          </rdf:Bag>
        </dc:subject>
        <cc:license
           rdf:resource="http://web.resource.org/cc/PublicDomain" />
      </cc:Work>
      <cc:License
         rdf:about="http://web.resource.org/cc/PublicDomain">
        <cc:permits
           rdf:resource="http://web.resource.org/cc/Reproduction" />
        <cc:permits
           rdf:resource="http://web.resource.org/cc/Distribution" />
        <cc:permits
           rdf:resource="http://web.resource.org/cc/DerivativeWorks" />
      </cc:License>
    </rdf:RDF>
  </metadata>
  <g
     inkscape:label="Ebene 1"
     inkscape:groupmode="layer"
     id="layer1"
     transform="translate(-17.532263,-14.057961)">
    <g
       id="g3865"
       transform="translate(805.02146,425.1913)"
       inkscape:export-filename="C:\Dokumente und Einstellungen\Klaus\Eigene Dateien\Eigene Bilder\OpebClipartLibrary\Helicopter.png"
       inkscape:export-xdpi="28.273672"
       inkscape:export-ydpi="28.273672" />
    <g
       id="g4101"
       transform="matrix(0.7980066,-6.1041316e-2,6.1041316e-2,0.7980066,148.90635,135.61385)"
       inkscape:export-filename="C:\Dokumente und Einstellungen\Klaus\Eigene Dateien\Eigene Bilder\OpebClipartLibrary\Helicopter.png"
       inkscape:export-xdpi="28.273672"
       inkscape:export-ydpi="28.273672">
      <path
         id="rect4057"
         d="M 557.25,119.65625 C 512.44555,119.81711 462.29979,121.27444 409.40625,124.15625 C 221.34033,134.40269 69.574748,158.83736 70.65625,178.6875 C 71.670033,197.29474 206.6367,205.3216 378.4375,197.8125 C 378.82158,203.05405 379.30174,207.77196 379.875,211.75 C 283.30087,218.23367 207.46875,283.54148 207.46875,361.78125 C 207.46875,402.77644 227.41703,439.94482 259.875,467.3125 L 195.59375,472.15625 C 179.39395,473.37691 167.34184,487.39395 168.5625,503.59375 C 169.78316,519.79355 183.80019,531.84568 200,530.625 L 257.78125,526.28125 L 274.28125,535.625 L 265.0625,536.3125 C 246.70616,537.69566 233.05435,553.58116 234.4375,571.9375 C 235.82066,590.29384 251.70615,603.97691 270.0625,602.59375 L 632.5,575.28125 C 650.85634,573.89809 664.50814,558.0126 663.125,539.65625 C 661.74184,521.29991 645.85632,507.61684 627.5,509 L 554.625,514.5 L 531.46875,503.15625 C 541.40163,497.85903 547.77816,487.07988 546.875,475.09375 C 546.41607,469.00314 544.17002,463.49682 540.65625,459.0625 C 559.01318,441.15007 572.40089,419.75019 579.09375,396.28125 C 635.68988,356.71935 695.50021,327.16232 762.5625,311.59375 C 778.62027,344.60547 812.50021,367.37501 851.65625,367.375 C 906.3059,367.375 950.65624,323.02464 950.65625,268.375 C 950.65625,213.72535 906.30589,169.375 851.65625,169.375 C 811.66706,169.375 777.182,193.12776 761.5625,227.28125 C 678.24507,223.23904 565.0783,232.26919 491.8125,232.46875 C 475.8891,224.84174 458.44567,219.03655 439.9375,215.4375 C 440.49388,210.77143 440.62309,203.25365 440.3125,194.5 C 615.67897,183.48551 753.0917,160.45246 752.0625,141.5625 C 751.28517,127.29521 671.75025,119.24517 557.25,119.65625 z "
         style="fill:none;fill-opacity:1;stroke:#000000;stroke-width:15;stroke-linecap:round;stroke-linejoin:round;stroke-miterlimit:4;stroke-dasharray:none;stroke-opacity:1" />
      <g
         id="g4040">
        <rect
           transform="matrix(0.9971732,-7.5137268e-2,7.5137268e-2,0.9971732,0,0)"
           ry="29.324415"
           y="485.51587"
           x="130.23753"
           height="58.64883"
           width="379.40726"
           id="rect4008"
           style="fill:#ffcc00;fill-opacity:1;stroke:#000000;stroke-width:4;stroke-linecap:round;stroke-linejoin:round;stroke-miterlimit:4;stroke-dasharray:none;stroke-opacity:1" />
        <path
           style="fill:#ff0000;fill-opacity:1;stroke:#000000;stroke-width:4;stroke-linecap:round;stroke-linejoin:round;stroke-miterlimit:4;stroke-dasharray:none;stroke-opacity:1"
           d="M 242.032,487.2944 L 487.34581,481.55127 L 606.31069,539.80304 L 333.92212,569.33915 L 243.26267,518.06118 C 248.68953,508.973 247.53384,498.56832 242.032,487.2944 z "
           id="rect4010"
           sodipodi:nodetypes="cccccc" />
        <path
           style="fill:#ff0000;fill-opacity:1;fill-rule:evenodd;stroke:#000000;stroke-width:4;stroke-linecap:round;stroke-linejoin:round;stroke-miterlimit:4;stroke-dasharray:none;stroke-opacity:1"
           d="M 847.39373,327.18462 C 876.25324,327.18462 897.89788,304.60711 897.89788,275.57887 C 897.89788,246.55062 876.25324,222.36042 847.39373,222.36042 C 820.33794,222.36042 798.6933,246.55062 798.6933,275.57887 C 798.6933,304.60711 820.33794,327.18462 847.39373,327.18462 z "
           id="path3938" />
        <path
           style="fill:#ff0000;fill-opacity:1;fill-rule:evenodd;stroke:#000000;stroke-width:4;stroke-linecap:round;stroke-linejoin:round;stroke-miterlimit:4;stroke-dasharray:none;stroke-opacity:1"
           d="M 487.65338,232.51066 C 614.66463,232.75708 870.91617,204.00818 869.21435,267.84637 C 868.57682,291.3023 848.09622,298.2929 842.71833,300.08553 C 716.60659,307.47748 616.6711,360.9944 522.11217,440.09092 C 488.90929,411.30058 458.52067,268.40837 487.65338,232.51066 z "
           id="path3940"
           sodipodi:nodetypes="ccccc" />
        <path
           style="fill:#ff0000;fill-opacity:1;fill-rule:evenodd;stroke:#000000;stroke-width:4;stroke-linecap:round;stroke-linejoin:round;stroke-miterlimit:4;stroke-dasharray:none;stroke-opacity:1"
           d="M 395.68387,514.16762 C 499.65661,514.16762 583.91039,446.04754 583.91039,361.79376 C 583.91039,279.33263 499.65661,211.21255 395.68387,211.21255 C 291.71113,211.21255 207.45735,279.33263 207.45735,361.79376 C 207.45735,446.04754 291.71113,514.16762 395.68387,514.16762 z "
           id="path3942" />
        <rect
           style="fill:#ff0000;fill-opacity:1;stroke:#000000;stroke-width:4;stroke-linecap:round;stroke-linejoin:round;stroke-miterlimit:4;stroke-dasharray:none;stroke-opacity:1"
           id="rect4038"
           width="62.11227"
           height="70.315781"
           x="367.03622"
           y="173.73019"
           ry="31.056135"
           rx="3.515789"
           transform="matrix(0.9985191,-5.440257e-2,5.440257e-2,0.9985191,0,0)" />
        <path
           style="fill:#99ffff;fill-opacity:1;fill-rule:evenodd;stroke:#000000;stroke-width:4;stroke-linecap:round;stroke-linejoin:round;stroke-miterlimit:4;stroke-dasharray:none;stroke-opacity:1"
           d="M 430.998,259.90892 C 462.51335,302.88072 442.45814,371.13003 388.0225,411.57406 C 333.58688,454.54586 261.96104,452.01811 230.44569,409.0463 C 196.06529,366.07451 216.1205,297.82521 270.55613,254.85342 C 324.99177,214.40939 396.61759,214.40939 430.998,259.90892 z "
           id="path3944" />
        <rect
           style="fill:#ffcc00;fill-opacity:1;stroke:#000000;stroke-width:4;stroke-linecap:round;stroke-linejoin:round;stroke-miterlimit:4;stroke-dasharray:none;stroke-opacity:1"
           id="rect4006"
           width="429.91449"
           height="66.456245"
           x="190.79749"
           y="554.7229"
           ry="33.228123"
           transform="matrix(0.9971732,-7.5137268e-2,7.5137268e-2,0.9971732,0,0)" />
        <path
           id="path4013"
           d="M 338.28444,247.66381 C 360.35479,253.67429 362.33,278.56789 343.4247,302.63449 C 324.94301,327.46048 290.72603,342.38069 268.65567,336.37022 C 245.23356,330.98694 243.25836,306.09334 261.74006,281.26735 C 280.64535,257.20075 314.43873,241.52116 338.28444,247.66381 z "
           style="fill:#ffffff;fill-opacity:1;fill-rule:evenodd;stroke:none;stroke-width:4;stroke-linecap:round;stroke-linejoin:round;stroke-miterlimit:4;stroke-dasharray:none;stroke-opacity:1" />
        <path
           transform="matrix(0.2306114,0,0,0.2306114,541.79889,239.12999)"
           d="m 1772.9201,126.82128 c 0,237.09946 -192.2071,429.30655 -429.3066,429.30655 -237.0994,0 -429.30652,-192.20709 -429.30652,-429.30655 0,-237.09946 192.20712,-429.30655 429.30652,-429.30655 237.0995,0 429.3066,192.20709 429.3066,429.30655 z"
           sodipodi:ry="429.30655"
           sodipodi:rx="429.30655"
           sodipodi:cy="126.82128"
           sodipodi:cx="1343.6135"
           id="path4019"
           style="fill:#cccccc;fill-opacity:0.88235294;stroke:#000000;stroke-width:17.34519577;stroke-linecap:round;stroke-linejoin:round;stroke-miterlimit:4;stroke-dasharray:none;stroke-opacity:1"
           sodipodi:type="arc" />
        <path
           transform="matrix(5.4422366e-2,0,0,5.4422366e-2,778.5288,261.47451)"
           sodipodi:type="arc"
           style="fill:#ff0000;fill-opacity:1;stroke:#000000;stroke-width:73.49919128;stroke-linecap:round;stroke-linejoin:round;stroke-miterlimit:4;stroke-dasharray:none;stroke-opacity:1"
           id="path4021"
           sodipodi:cx="1343.6135"
           sodipodi:cy="126.82128"
           sodipodi:rx="429.30655"
           sodipodi:ry="429.30655"
           d="m 1772.9201,126.82128 c 0,237.09946 -192.2071,429.30655 -429.3066,429.30655 -237.0994,0 -429.30652,-192.20709 -429.30652,-429.30655 0,-237.09946 192.20712,-429.30655 429.30652,-429.30655 237.0995,0 429.3066,192.20709 429.3066,429.30655 z" />
        <path
           sodipodi:type="arc"
           style="fill:#cccccc;fill-opacity:0.88235294;stroke:#000000;stroke-width:15.49123669;stroke-linecap:round;stroke-linejoin:round;stroke-miterlimit:4;stroke-dasharray:none;stroke-opacity:1"
           id="path4023"
           sodipodi:cx="1343.6135"
           sodipodi:cy="126.82128"
           sodipodi:rx="429.30655"
           sodipodi:ry="429.30655"
           d="m 1772.9201,126.82128 c 0,237.09946 -192.2071,429.30655 -429.3066,429.30655 -237.0994,0 -429.30652,-192.20709 -429.30652,-429.30655 0,-237.09946 192.20712,-429.30655 429.30652,-429.30655 237.0995,0 429.3066,192.20709 429.3066,429.30655 z"
           transform="matrix(0.7936034,-4.3238097e-2,4.5637316e-3,8.376393e-2,-655.5105,207.6007)" />
        <path
           style="fill:#ff0000;fill-opacity:1;stroke:#000000;stroke-width:4;stroke-linecap:round;stroke-linejoin:round;stroke-miterlimit:4;stroke-dasharray:none;stroke-opacity:1"
           d="M 409.55521,143.03766 C 380.34857,144.62893 353.95212,153.55693 333.59353,167.14305 L 487.68614,158.74759 C 465.97201,147.45373 438.76181,141.44638 409.55521,143.03766 z "
           id="path4030" />
      </g>
    </g>
  </g>
</svg>
